<svg xmlns="http://www.w3.org/2000/svg" fill="none" viewBox="0 0 31 24"><path fill="#fff" d="M27.237 5.981c.019.263.019.525.019.788C27.256 14.775 21.162 24 10.025 24c-3.432 0-6.62-.994-9.3-2.719.487.056.956.075 1.462.075a12.13 12.13 0 007.519-2.587 6.067 6.067 0 01-5.663-4.2c.375.056.75.093 1.144.093a6.41 6.41 0 001.594-.206 6.057 6.057 0 01-4.856-5.944v-.074a6.1 6.1 0 002.737.768 6.052 6.052 0 01-2.7-5.044c0-1.125.3-2.156.825-3.056a17.215 17.215 0 0012.487 6.338 6.839 6.839 0 01-.15-1.388c0-3.337 2.7-6.056 6.057-6.056 1.743 0 3.319.731 4.425 1.913A11.924 11.924 0 0029.45.45a6.04 6.04 0 01-2.663 3.337 12.14 12.14 0 003.488-.937 13.016 13.016 0 01-3.038 3.131z"/></svg>
